# AST/ASF file generated using VICON BodyLanguage
# -----------------------------------------------
:version 1.10
:name VICON
:units
  mass 1.0
  length 0.45
  angle deg
:documentation
   .ast/.asf automatically generated from VICON data using
   VICON BodyBuilder and BodyLanguage model FoxedUp or BRILLIANT.MOD
:root
   order TX TY TZ RX RY RZ
   axis XYZ
   position 0 0 0  
   orientation 0 0 0 
:bonedata
  begin
     id 1 
     name lhipjoint
     direction 0.623529 -0.717805 0.309788 
     length 2.23224 
     axis 0 0 0  XYZ
  end
  begin
     id 2 
     name lfemur
     direction 0.34202 -0.939693 0  
     length 7.11402  
     axis 0 0 20  XYZ
    dof rx ry rz
    limits (-160.0 20.0)
           (-70.0 70.0)
           (-60.0 70.0)
  end
  begin
     id 3 
     name ltibia
     direction 0.34202 -0.939693 0   
     length 6.78496   
     axis 0 0 20   XYZ
    dof rx
    limits (-10.0 170.0)
  end
  begin
     id 4 
     name lfoot
     direction 0.125078 -0.343648 0.930732   
     length 1.84054   
     axis -90 7.62852e-016 20   XYZ
    dof rx rz
    limits (-45.0 90.0)
           (-70.0 20.0)
  end
  begin
     id 5 
     name ltoes
     direction 1.53565e-011 -4.21893e-011 1   
     length 0.916474   
     axis -90 7.62852e-016 20   XYZ
    dof rx
    limits (-90.0 20.0)
  end
  begin
     id 6 
     name rhipjoint
     direction -0.564688 -0.757748 0.327026   
     length 2.11457  
     axis 0 0 0  XYZ 
  end
  begin
     id 7 
     name rfemur
     direction -0.34202 -0.939693 0   
     length 7.14609   
     axis 0 0 -20   XYZ
    dof rx ry rz
    limits (-160.0 20.0)
           (-70.0 70.0)
           (-70.0 60.0)
  end
  begin
     id 8 
     name rtibia
     direction -0.34202 -0.939693 0   
     length 6.78101   
     axis 0 0 -20   XYZ
    dof rx
    limits (-10.0 170.0)
 end
 begin
     id 9 
     name rfoot
     direction -0.0992671 -0.272734 0.956955   
     length 1.96168  
     axis -90 -7.62852e-016 -20   XYZ
    dof rx rz
    limits (-45.0 90.0)
           (-20.0 70.0)
  end
  begin
     id 10 
     name rtoes
     direction -1.5356e-011 -4.21891e-011 1   
     length 0.982933   
     axis -90 -7.62852e-016 -20   XYZ
    dof rx
    limits (-90.0 20.0)
  end
  begin
     id 11 
     name lowerback
     direction -0.00596953 0.998668 0.0512524   
     length 1.87557   
     axis 0 0 0   XYZ
    dof rx ry rz
    limits (-20.0 45.0)
           (-30.0 30.0)
           (-30.0 30.0)
  end
  begin
     id 12 
     name upperback
     direction 0.00584879 0.999652 0.0257308   
     length 1.87883   
     axis 0 0 0   XYZ
    dof rx ry rz
    limits (-20.0 45.0)
           (-30.0 30.0)
           (-30.0 30.0)
  end
  begin
     id 13 
     name thorax
     direction 0.010104 0.999947 0.00178881   
     length 1.87779   
     axis 0 0 0   XYZ
    dof rx ry rz
    limits (-20.0 45.0)
           (-30.0 30.0)
           (-30.0 30.0)
  end
  begin
     id 14 
     name lowerneck
     direction 0.0120771 0.995934 -0.0892773   
     length 1.40897   
     axis 0 0 0   XYZ
    dof rx ry rz
    limits (-20.0 45.0)
           (-30.0 30.0)
           (-30.0 30.0)
  end
  begin
     id 15 
     name upperneck
     direction -0.030568 0.999465 -0.0116366   
     length 1.38661   
     axis 0 0 0   XYZ
    dof rx ry rz
    limits (-20.0 45.0)
           (-30.0 30.0)
           (-30.0 30.0)
  end
  begin
     id 16
     name head
     direction -0.0170715 0.999854 -0.00104426  
     length 1.47052  
     axis 0 0 0   XYZ
    dof rx ry rz
    limits (-20.0 45.0)
           (-30.0 30.0)
           (-30.0 30.0)
  end
  begin
     id 17 
     name lclavicle
     direction 0.977763 0.206143 0.038532  
     length 3.02424  
     axis 0 0 0   XYZ
    dof ry rz
    limits (-20.0 10.0)
           (0.0 20.0)
  end
  begin
     id 18 
     name lhumerus
     direction 1 -4.48965e-011 -2.62654e-027   
     length 4.68382   
     axis 180 -30 -90   XYZ
    dof rx ry rz
    limits (-60.0 90.0)
           (-90.0 90.0)
           (-90.0 90.0)
  end
  begin
     id 19
     name lradius
     direction 1 -4.48973e-011 -1.54954e-027   
     length 2.98124   
     axis 180 -30 -90   XYZ
    dof rx
    limits (-10.0 170.0)
  end
  begin
     id 20
     name lwrist
     direction 1 -4.48959e-011 7.20928e-028   
     length 1.49062   
     axis -5.52449e-016 90 90   XYZ
    dof ry
    limits (-180.0 0.0)
 end
  begin
     id 21 
     name lhand
     direction 1 -4.48971e-011 1.44186e-027   
     length 0.707595   
     axis -9.20027e-016 90 90   XYZ
    dof rx rz
    limits (-90.0 90.0)
           (-45.0 45.0)
  end
  begin
     id 22 
     name lfingers
     direction 1 -4.48985e-011 2.88371e-027   
     length 0.570481   
     axis -1.84005e-015 90 90   XYZ
    dof rx
    limits (0.0 90.0)
  end
  begin
     id 23
     name lthumb
     direction 0.707107 -6.34929e-011 0.707107   
     length 0.819101   
     axis -90 45 2.85299e-015   XYZ
    dof rx rz
    limits (-45.0 45.0)
           (-45.0 45.0)
  end
  begin
     id 24 
     name rclavicle
     direction -0.958661 0.284411 -0.00895327   
     length 3.11921  
     axis 0 0 0   XYZ 
    dof ry rz
    limits (-10.0 20.0)
           (-20.0 0.0)
  end
  begin
     id 25 
     name rhumerus
     direction -1 -4.48963e-011 -4.22193e-027  
     length 4.75876   
     axis 180 30 90   XYZ
    dof rx ry rz
    limits (-90.0 60.0)
           (-90.0 90.0)
           (-90.0 90.0)
  end
  begin
     id 26 
     name rradius
     direction -1 -4.48968e-011 -1.07616e-027   
     length 2.93293   
     axis 180 30 90   XYZ
    dof rx
    limits (-10.0 170.0)
  end
  begin
     id 27 
     name rwrist
     direction -1 -4.48965e-011 7.20928e-028   
     length 1.46647   
     axis -5.52449e-016 -90 -90   XYZ
    dof ry
    limits (-180.0 0.0)
  end
  begin
     id 28
     name rhand
     direction -1 -4.48971e-011 1.44186e-027   
     length 0.831748   
     axis -9.20027e-016 -90 -90   XYZ
    dof rx rz
    limits (-90.0 90.0)
           (-45.0 45.0)
  end
  begin
     id 29
     name rfingers
     direction -1 -4.48961e-011 2.88371e-027   
     length 0.670577   
     axis -1.84005e-015 -90 -90   XYZ
    dof rx
    limits (0.0 90.0)
  end
  begin
     id 30
     name rthumb
     direction -0.707107 -6.34929e-011 0.707107   
     length 0.962818   
     axis -90 -45 -2.85299e-015   XYZ
    dof rx rz
    limits (-45.0 45.0)
           (-45.0 45.0)
  end
:hierarchy
  begin
    root lhipjoint rhipjoint lowerback
    lhipjoint lfemur
    lfemur ltibia
    ltibia lfoot
    lfoot ltoes
    rhipjoint rfemur
    rfemur rtibia
    rtibia rfoot
    rfoot rtoes
    lowerback upperback
    upperback thorax
    thorax lowerneck lclavicle rclavicle
    lowerneck upperneck
    upperneck head
    lclavicle lhumerus
    lhumerus lradius
    lradius lwrist
    lwrist lhand lthumb
    lhand lfingers
    rclavicle rhumerus
    rhumerus rradius
    rradius rwrist
    rwrist rhand rthumb
    rhand rfingers
  end

#!OML:ASF E:\id_vita\Project 1\Capture day 1\Session 1\Female.ASF
:FULLY-SPECIFIED
:DEGREES
43
root -29.4981 15.9854 2.9603 -5.9211 85.1451 -16.3133
lowerback -10.4973 1.55165 -2.98724
upperback -5.31758 2.51682 2.02978
thorax 0.119495 1.43702 4.04559
lowerneck 0.389808 1.06096 -1.64618
upperneck 10.5685 1.6224 0.394246
head 3.30444 0.834321 0.461267
rclavicle -9.7156e-015 1.27222e-014
rhumerus -38.401 -36.8041 -68.2106
rradius 13.1828
rwrist 46.5761
rhand -15.2352 13.9831
rfingers 7.12502
rthumb 10.9379 -15.712
lclavicle -9.7156e-015 1.27222e-014
lhumerus -44.8776 39.8684 65.5241
lradius 14.2833
lwrist -55.047
lhand -6.99487 21.975
lfingers 7.12502
lthumb 18.8758 51.0792
rfemur -21.137 -1.91343 29.0771
rtibia 31.2555
rfoot -14.5583 -22.3311
rtoes 6.78537
lfemur -26.7302 -3.14253 -11.0704
ltibia 53.4641
lfoot -15.7578 9.41457
ltoes -19.9207
44
root -29.4967 16.0013 2.96166 -6.08662 85.1764 -16.4212
lowerback -10.1908 1.5885 -2.84863
upperback -5.34684 2.54556 1.96593
thorax -0.0706429 1.45107 3.88947
lowerneck 0.302277 1.12525 -1.65188
upperneck 10.7766 1.70907 0.481746
head 3.39147 0.881292 0.495897
rclavicle 9.19379e-015 4.77083e-015
rhumerus -38.3917 -36.5498 -68.3727
rradius 13.1317
rwrist 46.3086
rhand -15.3919 14.2605
rfingers 7.12502
rthumb 10.7868 -15.4425
lclavicle 9.19379e-015 4.77083e-015
lhumerus -44.4535 38.7265 66.4539
lradius 14.5757
lwrist -53.4607
lhand -6.82398 22.3478
lfingers 7.12502
lthumb 19.0401 51.4358
rfemur -21.0388 -2.0556 29.1093
rtibia 31.203
rfoot -14.5208 -22.3045
rtoes 6.74866
lfemur -27.1735 -3.055 -11.0797
ltibia 53.9771
lfoot -14.6926 8.21329
ltoes -14.5499
45
root -29.496 16.006 2.96348 -6.01723 85.1791 -16.3009
lowerback -10.2329 1.59529 -2.93587
upperback -5.14367 2.55292 2.06488
thorax 0.154127 1.44609 4.04971
lowerneck 0.188236 1.20099 -1.87214
upperneck 10.7475 1.80881 0.566933
head 3.39949 0.924123 0.565482
rclavicle 1.25483e-014 1.11319e-014
rhumerus -37.78 -35.8939 -68.963
rradius 13.153
rwrist 45.297
rhand -14.9819 13.9811
rfingers 7.12502
rthumb 11.1822 -15.7009
lclavicle 1.25483e-014 1.11319e-014
lhumerus -43.8205 37.9924 67.6804
lradius 14.9064
lwrist -51.8689
lhand -6.57573 22.7936
lfingers 7.12502
lthumb 19.2788 51.858
rfemur -20.9102 -2.09413 29.1181
rtibia 31.0367
rfoot -14.3708 -22.3037
rtoes 6.66294
lfemur -27.6137 -2.79276 -11.0925
ltibia 54.6086
lfoot -13.9022 7.37113
ltoes -10.9419
46
root -29.4942 16.0026 2.96587 -5.76567 85.1105 -15.9818
lowerback -9.96477 1.67531 -2.82594
upperback -5.14734 2.6417 1.97705
thorax 0.00594303 1.48879 3.89236
lowerneck 0.250475 1.17127 -1.78659
upperneck 10.7449 1.76471 0.58131
head 3.38784 0.906573 0.553423
rclavicle -4.15211e-014 -2.42517e-014
rhumerus -38.0397 -36.4133 -68.6722
rradius 13.1209
rwrist 46.0473
rhand -14.5671 13.6385
rfingers 7.12502
rthumb 11.5823 -16.0214
lclavicle -4.15211e-014 -2.42517e-014
lhumerus -43.77 37.3381 67.9771
lradius 15.0316
lwrist -51.311
lhand -6.98946 23.0531
lfingers 7.12502
lthumb 18.881 52.1568
rfemur -20.7556 -1.94237 29.1032
rtibia 30.8674
rfoot -14.1363 -22.3926
rtoes 6.51324
lfemur -27.9638 -2.56451 -11.1233
ltibia 55.307
lfoot -13.3621 7.20933
ltoes -10.5325
47
root -29.4932 15.9962 2.96691 -5.6937 85.0475 -15.8364
lowerback -9.80591 1.69746 -2.68807
upperback -5.02783 2.64829 1.90696
thorax 0.0535703 1.48186 3.7383
lowerneck 0.17243 1.18476 -1.73569
upperneck 10.6441 1.77536 0.598993
head 3.36753 0.912731 0.550447
rclavicle 3.8266e-015 3.18055e-015
rhumerus -38.0309 -36.9412 -68.57
rradius 13.031
rwrist 46.7416
rhand -14.4428 13.3448
rfingers 7.12502
rthumb 11.7021 -16.3084
lclavicle 3.8266e-015 3.18055e-015
lhumerus -43.5292 36.8966 68.3113
lradius 15.2903
lwrist -50.4685
lhand -6.88816 23.0792
lfingers 7.12502
lthumb 18.9784 52.1733
rfemur -20.6092 -1.89351 29.1308
rtibia 30.725
rfoot -13.6086 -22.5944
rtoes 4.8535
lfemur -28.3554 -2.44569 -11.1464
ltibia 56.0571
lfoot -12.8072 7.14741
ltoes -10.013
48
root -29.4922 15.9891 2.96675 -4.30302 85.0192 -14.4502
lowerback -9.66894 1.72476 -2.58164
upperback -4.97853 2.66898 1.74005
thorax 0.0423327 1.48485 3.50183
lowerneck 0.261285 1.25053 -1.83945
upperneck 10.4224 1.83023 0.908254
head 3.26994 0.94554 0.667107
rclavicle -2.08227e-014 -2.18663e-015
rhumerus -38.0446 -37.1651 -68.7468
rradius 13.081
rwrist 46.8685
rhand -14.2256 13.4275
rfingers 7.12502
rthumb 11.9116 -16.2136
lclavicle -2.08227e-014 -2.18663e-015
lhumerus -43.6798 36.9872 67.9048
lradius 15.4316
lwrist -50.508
lhand -6.95416 22.8105
lfingers 7.12502
lthumb 18.9149 51.9109
rfemur -20.5746 -2.00553 29.0637
rtibia 30.5943
rfoot -12.8528 -22.839
rtoes 2.10884
lfemur -28.8487 -2.43252 -11.2748
ltibia 56.8382
lfoot -12.3686 6.99621
ltoes -8.56713
49
root -29.4892 15.9869 2.96875 -2.44874 84.9871 -12.6199
lowerback -9.61807 1.80554 -2.63079
upperback -4.91126 2.7758 1.62451
thorax 0.0796328 1.53391 3.41841
lowerneck 0.344249 1.24366 -1.94868
upperneck 10.2314 1.79712 1.13984
head 3.18654 0.93192 0.757198
rclavicle -4.17448e-015 -4.17448e-015
rhumerus -37.9034 -36.9627 -69.1091
rradius 13.255
rwrist 46.2635
rhand -14.0012 13.3862
rfingers 7.12502
rthumb 12.1279 -16.2423
lclavicle -4.17448e-015 -4.17448e-015
lhumerus -43.3391 36.421 68.3843
lradius 15.5779
lwrist -49.5578
lhand -6.98451 22.821
lfingers 7.12502
lthumb 18.8857 51.9242
rfemur -20.5947 -1.94065 28.9119
rtibia 30.5062
rfoot -12.3767 -23.0953
rtoes 0.663644
lfemur -29.3077 -2.44304 -11.4364
ltibia 57.6355
lfoot -12.0688 6.78747
ltoes -6.96392
50
root -29.4835 15.9887 2.97242 -1.81566 84.8851 -11.9793
lowerback -9.45487 1.92266 -2.53371
upperback -4.8948 2.91818 1.49013
thorax 0.00906866 1.60114 3.22967
lowerneck 0.241243 1.20364 -1.90552
upperneck 10.3487 1.73369 1.27885
head 3.2467 0.907317 0.79598
rclavicle -2.77305e-014 -2.54444e-014
rhumerus -37.6191 -35.9361 -70.1319
rradius 13.3692
rwrist 45.7853
rhand -15.3074 12.6662
rfingers 7.12502
rthumb 10.8683 -17.0325
lclavicle -2.77305e-014 -2.54444e-014
lhumerus -43.0562 35.5621 68.8537
lradius 15.7779
lwrist -48.3665
lhand -6.96537 22.9286
lfingers 7.12502
lthumb 18.9041 52.03
rfemur -20.5935 -1.69661 28.8502
rtibia 30.4887
rfoot -12.3916 -23.1747
rtoes 1.23247
lfemur -29.6603 -2.3727 -11.495
ltibia 58.4197
lfoot -11.6482 6.72155
ltoes -5.82916
51
root -29.4847 15.9923 2.97765 -1.38385 84.877 -11.6626
lowerback -9.53933 1.88529 -2.59788
upperback -4.7495 2.86936 1.49125
thorax 0.206437 1.56957 3.27073
lowerneck -0.0987195 1.23874 -1.81071
upperneck 10.5033 1.79509 1.13734
head 3.36478 0.935397 0.741
rclavicle 5.98839e-015 5.36719e-015
rhumerus -37.2504 -36.1645 -70.2539
rradius 13.3187
rwrist 45.6263
rhand -14.2909 12.9302
rfingers 7.12502
rthumb 11.8486 -16.7146
lclavicle 5.98839e-015 5.36719e-015
lhumerus -43.0416 35.7379 68.7506
lradius 15.9326
lwrist -48.1139
lhand -6.84639 22.5415
lfingers 7.12502
lthumb 19.0186 51.6317
rfemur -20.7745 -1.43092 28.8144
rtibia 30.5299
rfoot -12.4397 -23.1777
rtoes 2.52035
lfemur -30.2429 -2.25707 -11.5383
ltibia 59.1593
lfoot -10.9545 6.65296
ltoes -4.97599
52
root -29.4867 15.9966 2.98119 -0.781955 84.879 -11.1887
lowerback -9.57743 1.86317 -2.60427
upperback -4.65856 2.83757 1.45967
thorax 0.325549 1.54809 3.24306
lowerneck -0.331412 1.27427 -1.64719
upperneck 10.6708 1.86766 0.864819
head 3.46935 0.967482 0.630415
rclavicle -7.70291e-016 1.21259e-014
rhumerus -36.9138 -36.1834 -70.5061
rradius 13.2648
rwrist 45.4805
rhand -13.6531 13.1764
rfingers 7.12502
rthumb 12.4635 -16.4319
lclavicle -7.70291e-016 1.21259e-014
lhumerus -42.9071 35.5939 68.8964
lradius 16.0531
lwrist -47.6055
lhand -6.83132 22.5939
lfingers 7.12502
lthumb 19.033 51.6826
rfemur -21.0057 -1.22743 28.7482
rtibia 30.6008
rfoot -12.3626 -23.2895
rtoes 2.63589
lfemur -30.9033 -2.17842 -11.6191
ltibia 59.8624
lfoot -10.2172 6.67489
ltoes -3.944
53
root -29.488 15.9998 2.98361 0.064965 84.9055 -10.4433
lowerback -9.50756 1.82237 -2.60378
upperback -4.60334 2.77884 1.43113
thorax 0.350629 1.51557 3.20629
lowerneck -0.490737 1.3124 -1.57721
upperneck 10.7232 1.93591 0.672973
head 3.51929 0.995977 0.560042
rclavicle -1.42752e-014 -1.90833e-014
rhumerus -36.6313 -36.2198 -70.7101
rradius 13.2001
rwrist 45.5089
rhand -13.5922 13.2293
rfingers 7.12502
rthumb 12.5223 -16.3755
lclavicle -1.42752e-014 -1.90833e-014
lhumerus -42.7352 35.2392 69.2117
lradius 16.1874
lwrist -46.854
lhand -6.94767 22.8031
lfingers 7.12502
lthumb 18.9211 51.9029
rfemur -21.2395 -1.16165 28.6677
rtibia 30.6779
rfoot -12.1796 -23.452
rtoes 1.83008
lfemur -31.5223 -2.25757 -11.7056
ltibia 60.5475
lfoot -9.53377 6.84943
ltoes -2.71823
54
root -29.4862 16.0042 2.98654 1.80061 84.8538 -8.71912
lowerback -9.40104 1.81811 -2.71395
upperback -4.50091 2.77477 1.38325
thorax 0.395876 1.50964 3.21622
lowerneck -0.534863 1.36109 -1.67851
upperneck 10.5696 1.98747 0.801002
head 3.47135 1.02062 0.619867
rclavicle 2.41275e-014 1.19271e-014
rhumerus -36.2695 -35.9553 -71.1779
rradius 13.1294
rwrist 45.7284
rhand -14.5195 13.1751
rfingers 7.12502
rthumb 11.6282 -16.4823
lclavicle 2.41275e-014 1.19271e-014
lhumerus -42.5581 34.9798 69.4598
lradius 16.3718
lwrist -45.9567
lhand -6.7414 22.7558
lfingers 7.12502
lthumb 19.1195 51.836
rfemur -21.348 -1.08303 28.4956
rtibia 30.736
rfoot -12.0321 -23.4991
rtoes 1.7653
lfemur -31.9844 -2.24641 -11.9009
ltibia 61.2076
lfoot -8.92291 6.89142
ltoes -2.55065
55
root -29.4833 16.0068 2.98971 2.47145 84.8009 -7.95744
lowerback -9.24154 1.88814 -2.73115
upperback -4.36065 2.8589 1.32564
thorax 0.449897 1.54484 3.17021
lowerneck -0.42729 1.38467 -1.76601
upperneck 10.2748 1.99571 0.984536
head 3.34587 1.02642 0.690368
rclavicle -2.61029e-014 -7.35503e-015
rhumerus -35.8246 -35.3201 -71.9157
rradius 13.2279
rwrist 45.0746
rhand -15.007 13.0146
rfingers 7.12502
rthumb 11.158 -16.6687
lclavicle -2.61029e-014 -7.35503e-015
lhumerus -42.2967 34.5265 69.8476
lradius 16.574
lwrist -45.1242
lhand -6.46982 23.1123
lfingers 7.12502
lthumb 19.3807 52.1665
rfemur -21.1944 -0.927305 28.4021
rtibia 30.7913
rfoot -12.382 -23.4285
rtoes 3.34895
lfemur -32.3577 -2.15272 -12.03
ltibia 61.8636
lfoot -8.22059 6.6876
ltoes -2.43125
56
root -29.482 16.0101 2.99427 1.88419 84.786 -8.44924
lowerback -9.03115 1.94524 -2.67831
upperback -4.22995 2.91897 1.33388
thorax 0.467891 1.56892 3.1482
lowerneck -0.394572 1.38411 -1.77233
upperneck 10.0599 1.9902 0.964423
head 3.26551 1.02118 0.681753
rclavicle -6.01324e-015 -8.94531e-015
rhumerus -35.4017 -34.7041 -72.4949
rradius 13.3881
rwrist 44.1346
rhand -14.6362 12.8393
rfingers 7.12502
rthumb 11.5156 -16.8244
lclavicle -6.01324e-015 -8.94531e-015
lhumerus -42.2607 34.3199 70.013
lradius 16.7374
lwrist -44.7588
lhand -6.36442 23.3708
lfingers 7.12502
lthumb 19.482 52.4147
rfemur -20.9142 -0.880018 28.469
rtibia 30.84
rfoot -13.168 -23.2015
rtoes 5.6094
lfemur -32.7516 -2.1091 -12.0116
ltibia 62.5155
lfoot -7.37576 6.43285
ltoes -0.879585
57
root -29.4817 16.0178 2.99992 1.94442 84.8066 -8.34891
lowerback -8.85571 1.95221 -2.76872
upperback -4.10456 2.925 1.40486
thorax 0.492323 1.56898 3.26836
lowerneck -0.546046 1.38651 -1.89866
upperneck 10.045 2.00436 0.892452
head 3.2884 1.0199 0.682365
rclavicle 4.7143e-014 7.35503e-015
rhumerus -34.9292 -34.1428 -72.8998
rradius 13.472
rwrist 43.4776
rhand -13.9746 12.5043
rfingers 7.12502
rthumb 12.1536 -17.1226
lclavicle 4.7143e-014 7.35503e-015
lhumerus -42.5147 34.8933 69.677
lradius 16.7134
lwrist -45.3429
lhand -6.5093 23.1761
lfingers 7.12502
lthumb 19.3427 52.2341
rfemur -20.7906 -1.03372 28.5153
rtibia 30.8903
rfoot -13.6307 -23.0038
rtoes 6.47546
lfemur -33.2156 -2.13343 -12.0307
ltibia 63.1776
lfoot -6.68332 6.27331
ltoes 0.951927
